<svg xmlns="http://www.w3.org/2000/svg" viewBox="15 14 473 100" role="img" aria-label="ENICAB"><path fill="#3FB8B4" fill-rule="evenodd" d="M56.83,111.23C55.51,111.03 54.26,110.76 53.08,110.42C52.35,110.21 51.30,109.99 50.75,109.93C49.20,109.76 48.17,109.49 47.17,108.99C46.66,108.74 45.84,108.44 45.33,108.33C44.23,108.07 43.35,107.72 42.97,107.39C42.82,107.25 42.16,106.92 41.50,106.65C40.84,106.39 40.02,105.95 39.69,105.69C39.36,105.42 38.78,105.08 38.42,104.93C38.05,104.78 37.59,104.49 37.38,104.30C37.18,104.11 36.64,103.72 36.18,103.44C34.77,102.55 32.37,100.63 31.25,99.48C27.81,95.97 26.53,94.51 25.87,93.32C25.58,92.81 25.18,92.25 24.99,92.07C24.79,91.90 24.48,91.45 24.29,91.09C24.11,90.72 23.74,90.16 23.48,89.84C23.22,89.51 22.86,88.80 22.67,88.26C22.48,87.71 22.19,87.11 22.02,86.92C21.57,86.43 21.21,85.67 21.08,84.91C21.01,84.55 20.80,83.96 20.60,83.60C20.41,83.25 20.12,82.72 19.97,82.44C19.82,82.15 19.57,81.24 19.42,80.42C19.26,79.59 18.96,78.47 18.74,77.92C18.17,76.48 18.05,75.75 17.82,72.67C17.60,69.68 17.70,63.16 18.00,60.97C18.09,60.27 18.43,58.91 18.75,57.94C19.07,56.98 19.33,56.05 19.33,55.88C19.33,55.20 19.88,53.55 20.33,52.83C20.60,52.42 20.93,51.56 21.08,50.92C21.26,50.11 21.52,49.53 21.90,49.05C22.20,48.66 22.55,48.01 22.66,47.60C22.78,47.18 23.12,46.56 23.42,46.21C23.72,45.86 24.09,45.27 24.24,44.91C24.39,44.55 24.70,44.06 24.91,43.83C25.13,43.60 25.56,42.99 25.87,42.48C26.18,41.96 26.77,41.15 27.18,40.67C28.23,39.44 33.34,34.33 33.52,34.33C33.60,34.33 33.99,34.04 34.38,33.69C34.77,33.34 35.46,32.84 35.92,32.58C36.38,32.32 37.00,31.89 37.30,31.64C37.60,31.38 38.12,31.05 38.46,30.91C38.80,30.77 39.28,30.46 39.52,30.23C39.76,30.00 40.49,29.60 41.15,29.33C41.80,29.06 42.58,28.66 42.88,28.44C43.17,28.21 44.05,27.84 44.83,27.62C45.61,27.39 46.64,27.00 47.13,26.76C47.67,26.48 48.61,26.22 49.63,26.06C50.52,25.92 51.93,25.59 52.75,25.33C54.82,24.66 56.42,24.50 61.16,24.50C65.65,24.51 66.76,24.62 68.75,25.25C69.48,25.49 70.98,25.83 72.08,26.00C73.52,26.24 74.35,26.47 75.03,26.82C75.55,27.10 76.45,27.44 77.03,27.59C77.61,27.73 78.46,28.10 78.92,28.40C79.38,28.70 80.14,29.08 80.62,29.24C81.10,29.39 81.84,29.81 82.26,30.16C82.68,30.50 83.32,30.88 83.68,30.98C84.04,31.09 84.59,31.40 84.90,31.67C85.20,31.94 85.80,32.41 86.22,32.71C89.14,34.78 92.83,38.18 92.83,38.80C92.83,39.56 92.33,40.44 91.74,40.72C90.67,41.23 90.41,41.13 88.85,39.53C88.06,38.72 87.14,37.90 86.81,37.70C86.47,37.49 86.16,37.22 86.11,37.10C86.06,36.97 85.50,36.53 84.86,36.11C84.23,35.70 83.65,35.28 83.59,35.18C83.53,35.08 83.05,34.78 82.53,34.51C82.01,34.25 81.40,33.84 81.18,33.61C80.97,33.37 80.31,33.02 79.74,32.83C79.16,32.64 78.60,32.37 78.48,32.23C78.17,31.86 77.53,31.56 76.38,31.26C75.81,31.11 74.84,30.74 74.22,30.42C73.48,30.05 72.64,29.78 71.83,29.66C71.15,29.56 69.86,29.25 68.97,28.98C66.50,28.22 65.60,28.13 60.83,28.12C56.29,28.11 55.43,28.19 53.39,28.85C52.83,29.03 51.49,29.36 50.41,29.59C49.28,29.82 48.17,30.16 47.77,30.40C47.39,30.62 46.44,30.99 45.66,31.23C44.87,31.47 43.98,31.85 43.67,32.08C43.36,32.31 42.68,32.66 42.18,32.85C41.67,33.03 41.06,33.37 40.83,33.58C40.60,33.80 39.97,34.20 39.42,34.47C38.87,34.75 38.23,35.17 38.00,35.42C37.77,35.66 37.36,35.98 37.08,36.11C36.81,36.25 36.32,36.62 36.00,36.93C35.68,37.25 34.86,38.00 34.18,38.60C33.50,39.20 32.81,39.86 32.66,40.06C32.50,40.25 31.73,41.08 30.94,41.88C30.15,42.69 29.50,43.42 29.50,43.51C29.50,43.60 29.21,43.99 28.86,44.38C28.50,44.77 28.08,45.38 27.91,45.75C27.74,46.12 27.39,46.69 27.13,47.03C26.87,47.36 26.55,47.91 26.40,48.25C26.26,48.59 25.89,49.24 25.58,49.70C25.26,50.16 24.85,51.07 24.66,51.72C24.47,52.38 24.10,53.22 23.83,53.59C23.49,54.09 23.27,54.74 23.02,56.01C22.83,56.97 22.48,58.22 22.24,58.80C21.68,60.17 21.55,61.05 21.33,64.87C21.19,67.20 21.19,68.86 21.33,71.15C21.54,74.63 21.70,75.64 22.27,77.08C22.48,77.63 22.81,78.84 22.98,79.77C23.21,80.98 23.45,81.69 23.84,82.31C24.13,82.79 24.48,83.60 24.61,84.12C24.75,84.64 25.08,85.39 25.36,85.79C25.63,86.19 26.01,86.86 26.20,87.30C26.39,87.73 26.73,88.30 26.95,88.57C27.17,88.83 27.57,89.47 27.83,89.98C28.08,90.50 28.47,91.07 28.67,91.25C28.88,91.43 29.25,91.88 29.48,92.25C30.53,93.86 35.81,99.05 37.08,99.71C37.36,99.85 37.77,100.17 38.00,100.42C38.23,100.67 38.80,101.05 39.28,101.26C39.75,101.47 40.39,101.87 40.70,102.15C41.02,102.42 41.69,102.80 42.20,102.99C42.70,103.18 43.45,103.56 43.85,103.82C44.25,104.08 45.18,104.46 45.92,104.67C46.65,104.87 47.62,105.25 48.08,105.50C48.63,105.81 49.46,106.07 50.50,106.25C51.37,106.40 52.95,106.76 54.00,107.05L55.92,107.57L60.92,107.58L65.92,107.58L67.75,107.05C68.76,106.76 70.37,106.40 71.33,106.26C72.45,106.09 73.31,105.85 73.74,105.60C74.48,105.18 75.53,104.78 76.60,104.51C76.98,104.41 77.58,104.13 77.94,103.89C78.29,103.65 79.10,103.24 79.73,102.98C80.36,102.73 81.08,102.33 81.32,102.10C81.55,101.87 82.02,101.57 82.35,101.43C82.68,101.30 83.27,100.91 83.67,100.58C84.06,100.25 84.62,99.86 84.90,99.72C85.19,99.57 85.76,99.14 86.18,98.75C86.60,98.36 87.10,97.99 87.30,97.93C87.49,97.87 87.81,97.56 88.01,97.24C88.20,96.92 88.60,96.54 88.89,96.39C89.18,96.25 89.62,95.91 89.87,95.65C90.55,94.91 90.85,95.00 91.55,96.11C91.79,96.49 92.06,96.85 92.16,96.91C92.59,97.18 92.30,97.82 91.29,98.85C89.69,100.48 88.82,101.24 88.00,101.77C87.59,102.03 87.11,102.42 86.94,102.63C86.77,102.84 86.28,103.19 85.86,103.41C85.43,103.64 84.92,104.00 84.71,104.22C84.51,104.44 83.89,104.79 83.35,104.99C82.80,105.20 82.22,105.52 82.05,105.70C81.72,106.07 80.81,106.57 80.17,106.72C79.94,106.78 79.35,107.08 78.86,107.40C78.37,107.72 77.58,108.06 77.11,108.17C76.64,108.28 75.61,108.66 74.83,109.01C73.83,109.46 73.00,109.70 72.00,109.83C70.40,110.03 68.60,110.41 67.89,110.68C66.66,111.15 64.68,111.33 61.00,111.31C58.94,111.30 57.06,111.26 56.83,111.23ZM305.42,103.75C304.78,103.63 303.50,103.45 302.58,103.33C301.31,103.18 300.58,102.98 299.50,102.50C298.72,102.15 297.69,101.78 297.21,101.67C296.73,101.56 296.02,101.22 295.63,100.93C295.24,100.63 294.47,100.22 293.93,100.02C293.38,99.81 292.65,99.39 292.30,99.07C291.95,98.76 291.57,98.50 291.44,98.50C291.32,98.50 290.79,98.12 290.27,97.67C289.74,97.21 289.24,96.83 289.15,96.83C288.85,96.83 284.84,92.79 284.24,91.88C283.91,91.39 283.42,90.76 283.15,90.49C282.89,90.22 282.55,89.75 282.39,89.46C282.24,89.16 281.90,88.65 281.64,88.33C281.38,88.01 280.99,87.28 280.77,86.71C280.55,86.15 280.16,85.42 279.91,85.09C279.63,84.72 279.34,83.99 279.14,83.14C278.97,82.40 278.60,81.37 278.31,80.86C277.57,79.50 277.15,76.08 277.16,71.58C277.18,66.44 277.50,63.66 278.28,62.12C278.50,61.69 278.85,60.67 279.07,59.85C279.49,58.30 279.70,57.79 280.16,57.25C280.32,57.07 280.58,56.54 280.74,56.08C280.91,55.62 281.25,54.99 281.50,54.66C281.75,54.34 282.11,53.78 282.30,53.41C282.48,53.05 282.87,52.52 283.17,52.25C283.46,51.98 283.83,51.49 284.00,51.17C284.17,50.85 284.82,50.09 285.44,49.48C286.07,48.87 286.78,48.16 287.02,47.89C287.85,46.99 289.35,45.67 289.84,45.42C290.10,45.28 290.41,45.01 290.51,44.82C290.61,44.63 290.97,44.36 291.31,44.22C291.64,44.08 292.26,43.71 292.68,43.40C293.10,43.09 293.93,42.63 294.52,42.36C295.10,42.10 295.86,41.69 296.21,41.46C296.55,41.23 297.22,40.95 297.71,40.84C298.85,40.58 299.42,40.38 300.33,39.91C301.24,39.45 302.32,39.26 305.50,39.00C306.83,38.89 308.29,38.74 308.75,38.67C309.21,38.60 310.15,38.61 310.83,38.68C311.52,38.76 313.02,38.90 314.17,38.99C317.15,39.25 318.26,39.46 319.23,39.95C319.69,40.18 320.69,40.55 321.45,40.76C322.21,40.96 323.18,41.36 323.60,41.64C324.02,41.92 324.72,42.27 325.15,42.41C325.58,42.56 326.25,42.97 326.64,43.32C327.02,43.68 327.55,44.02 327.82,44.08C328.08,44.14 328.44,44.34 328.61,44.53C328.78,44.72 329.39,45.21 329.96,45.62C331.00,46.36 332.50,48.01 332.50,48.40C332.50,48.66 330.71,50.83 330.49,50.83C330.40,50.83 329.89,51.23 329.35,51.71C328.81,52.19 327.86,53.00 327.24,53.50C326.62,54.00 325.79,54.73 325.40,55.11C325.00,55.49 324.54,55.84 324.38,55.89C322.37,56.42 322.58,56.42 321.63,55.82C321.15,55.52 320.53,55.07 320.25,54.83C319.97,54.58 319.41,54.25 319.00,54.10C318.59,53.94 317.96,53.61 317.61,53.37C317.12,53.04 316.31,52.80 314.27,52.38C310.21,51.56 309.74,51.54 306.33,52.16C303.69,52.64 303.26,52.76 301.77,53.51C300.87,53.96 300.03,54.33 299.91,54.33C299.79,54.33 299.34,54.63 298.92,55.00C298.49,55.37 298.07,55.67 297.98,55.67C297.71,55.67 294.32,59.04 294.05,59.58C293.91,59.86 293.58,60.31 293.32,60.59C293.05,60.87 292.65,61.57 292.42,62.15C292.20,62.73 291.81,63.47 291.57,63.78C291.12,64.38 291.06,64.62 290.27,69.83L290.00,71.58L290.56,74.97C291.08,78.08 291.17,78.41 291.66,79.10C291.96,79.52 292.34,80.24 292.51,80.71C292.69,81.17 293.00,81.75 293.22,81.99C293.44,82.22 293.79,82.72 294.00,83.08C294.47,83.90 296.74,86.27 297.38,86.60C297.64,86.74 298.14,87.11 298.49,87.43C298.84,87.74 299.45,88.11 299.85,88.26C300.25,88.40 300.95,88.77 301.41,89.09C302.26,89.67 303.70,90.06 307.58,90.77C308.32,90.90 309.00,91.04 309.11,91.08C309.37,91.17 312.55,90.71 313.58,90.43C314.04,90.31 314.94,90.11 315.58,90.00C316.99,89.75 317.70,89.47 318.36,88.92C318.63,88.70 319.14,88.42 319.50,88.31C319.86,88.21 320.66,87.72 321.27,87.23C321.89,86.73 322.44,86.33 322.50,86.33C323.47,86.33 324.54,86.77 325.17,87.44C325.55,87.84 325.94,88.17 326.03,88.17C326.12,88.17 326.59,88.56 327.08,89.04C327.56,89.52 328.48,90.33 329.11,90.83C331.02,92.37 332.33,93.73 332.33,94.18C332.33,94.80 331.34,96.19 330.49,96.75C330.07,97.02 329.48,97.46 329.17,97.72C328.87,97.97 328.27,98.36 327.85,98.58C327.43,98.79 326.90,99.16 326.68,99.40C326.45,99.64 326.00,99.91 325.66,100.00C325.32,100.09 324.77,100.35 324.43,100.58C323.48,101.23 322.98,101.45 321.83,101.75C321.23,101.90 320.46,102.21 320.11,102.44C318.34,103.60 309.11,104.42 305.42,103.75ZM58.33,94.16C57.46,93.99 56.11,93.77 55.33,93.67C53.67,93.44 52.18,93.06 51.83,92.76C51.43,92.40 50.64,92.06 49.75,91.85C49.29,91.74 48.50,91.36 48.00,91.01C47.50,90.66 46.82,90.25 46.50,90.08C45.91,89.78 45.03,89.08 43.66,87.79C43.25,87.40 42.76,86.96 42.58,86.81C42.40,86.66 41.84,86.08 41.33,85.51C40.83,84.95 40.16,84.21 39.86,83.88C39.55,83.55 39.18,83.01 39.05,82.68C38.91,82.35 38.55,81.81 38.25,81.48C37.95,81.15 37.58,80.47 37.42,79.98C37.26,79.49 36.92,78.78 36.67,78.41C36.21,77.75 35.81,76.58 35.58,75.25C35.52,74.88 35.24,73.91 34.95,73.08C34.43,71.58 34.43,71.58 34.42,67.92C34.42,64.30 34.42,64.23 34.89,62.94C35.15,62.22 35.54,60.84 35.76,59.89C35.98,58.94 36.31,57.94 36.50,57.67C36.69,57.40 37.07,56.63 37.35,55.97C37.62,55.30 38.04,54.55 38.28,54.30C38.52,54.05 38.84,53.58 38.98,53.26C39.13,52.94 39.55,52.33 39.92,51.91C40.28,51.49 40.96,50.72 41.41,50.20C42.15,49.35 43.18,48.39 45.27,46.59C45.65,46.26 46.21,45.87 46.52,45.72C46.83,45.57 47.42,45.21 47.83,44.91C48.25,44.61 49.04,44.22 49.59,44.04C50.15,43.85 51.02,43.47 51.54,43.18C52.25,42.78 53.00,42.55 54.61,42.26C55.79,42.05 57.16,41.75 57.67,41.59C59.03,41.17 61.49,41.08 63.08,41.39C68.22,42.37 69.45,42.68 70.50,43.23C71.10,43.54 71.98,43.92 72.46,44.08C72.95,44.24 73.55,44.53 73.80,44.74C74.05,44.95 74.66,45.33 75.17,45.59C75.67,45.85 76.44,46.36 76.88,46.74C77.69,47.43 79.47,49.07 79.87,49.48C79.99,49.60 80.48,50.10 80.96,50.59C81.44,51.07 81.83,51.57 81.83,51.70C81.83,51.83 82.13,52.22 82.48,52.57C82.84,52.91 83.27,53.51 83.43,53.89C83.60,54.27 83.97,54.92 84.26,55.33C84.55,55.75 84.95,56.64 85.16,57.33C85.37,58.02 85.67,58.77 85.83,59.00C86.29,59.66 86.49,60.44 86.84,63.10C87.40,67.40 87.11,73.81 86.27,75.50C85.54,76.96 87.13,76.86 66.14,76.85C45.66,76.83 46.81,76.90 46.26,75.74C45.61,74.37 46.09,73.66 47.87,73.35C48.61,73.22 54.10,73.17 65.68,73.17C74.88,73.17 82.50,73.17 82.61,73.17C82.96,73.16 83.33,71.83 83.53,69.84C83.71,68.09 83.69,67.49 83.38,64.56C83.03,61.31 82.85,60.58 82.17,59.58C81.99,59.31 81.68,58.62 81.49,58.05C81.30,57.48 80.97,56.77 80.75,56.47C80.53,56.16 80.18,55.62 79.98,55.25C79.52,54.40 78.56,53.25 77.08,51.79C75.22,49.95 74.79,49.57 74.17,49.26C73.85,49.09 73.35,48.74 73.07,48.48C72.79,48.21 72.17,47.85 71.69,47.67C71.21,47.50 70.45,47.12 70.01,46.84C69.51,46.52 68.75,46.23 67.98,46.08C65.28,45.55 64.06,45.29 63.59,45.14C62.22,44.72 60.10,44.78 57.81,45.30C56.58,45.58 55.02,45.90 54.33,46.00C53.40,46.15 52.80,46.36 51.98,46.86C51.37,47.22 50.60,47.59 50.27,47.68C49.94,47.77 49.47,48.02 49.21,48.23C48.96,48.44 48.32,48.89 47.79,49.22C47.27,49.55 46.59,50.06 46.29,50.34C44.34,52.16 43.07,53.53 42.66,54.26C42.39,54.72 41.95,55.31 41.67,55.58C41.40,55.84 41.05,56.43 40.90,56.89C40.75,57.35 40.41,58.03 40.15,58.40C39.86,58.82 39.52,59.72 39.26,60.75C39.03,61.67 38.69,62.86 38.51,63.40C37.63,65.94 37.67,70.14 38.59,72.58C38.80,73.13 39.10,74.25 39.26,75.06C39.48,76.16 39.71,76.77 40.17,77.49C40.52,78.02 40.85,78.70 40.91,78.99C40.98,79.28 41.27,79.79 41.56,80.12C41.85,80.45 42.35,81.11 42.67,81.59C43.53,82.90 44.94,84.49 45.64,84.96C45.97,85.18 46.48,85.57 46.75,85.83C47.02,86.08 47.60,86.49 48.02,86.73C48.44,86.97 48.92,87.32 49.08,87.49C49.24,87.67 49.90,88.02 50.55,88.27C51.20,88.52 52.07,88.93 52.49,89.19C53.12,89.58 53.72,89.73 55.97,90.08C57.47,90.31 58.77,90.54 58.85,90.59C59.26,90.85 61.62,90.85 62.97,90.60C63.77,90.46 65.34,90.19 66.46,90.01C68.33,89.70 69.66,89.25 69.91,88.84C69.97,88.75 70.55,88.51 71.19,88.31C71.84,88.12 72.61,87.75 72.89,87.50C73.18,87.25 73.72,86.89 74.08,86.70C74.45,86.51 75.38,85.75 76.14,85.01C77.46,83.74 77.57,83.67 78.28,83.67C79.24,83.67 79.64,83.89 79.93,84.59C80.31,85.49 80.23,86.13 79.69,86.64C77.65,88.54 76.05,89.83 75.37,90.11C75.07,90.24 74.35,90.67 73.77,91.06C73.19,91.46 72.42,91.84 72.06,91.91C71.71,91.97 70.94,92.29 70.35,92.62C69.30,93.20 66.46,93.85 63.83,94.10C63.33,94.15 62.70,94.26 62.43,94.34C61.73,94.57 60.13,94.50 58.33,94.16Z"/><path fill="#FFFFFF" fill-rule="evenodd" d="M59.38,111.38C60.09,111.34 61.25,111.34 61.96,111.38C62.67,111.41 62.09,111.43 60.67,111.43C59.25,111.43 58.66,111.41 59.38,111.38ZM145.00,104.00C144.68,103.92 143.29,103.69 141.92,103.50C139.77,103.20 139.23,103.06 138.08,102.50C137.35,102.15 136.45,101.81 136.09,101.75C135.30,101.62 134.57,101.27 134.00,100.75C133.77,100.55 133.21,100.25 132.75,100.10C132.30,99.95 131.66,99.62 131.34,99.36C131.01,99.10 130.49,98.75 130.17,98.59C129.85,98.42 129.24,97.97 128.82,97.58C128.40,97.19 127.91,96.83 127.73,96.77C127.55,96.71 127.27,96.45 127.11,96.17C126.95,95.90 126.60,95.52 126.32,95.32C126.04,95.12 125.38,94.51 124.86,93.96C124.34,93.41 123.60,92.64 123.22,92.24C122.83,91.85 122.36,91.22 122.18,90.85C121.99,90.48 121.70,90.10 121.53,90.01C121.36,89.93 120.97,89.38 120.67,88.80C120.37,88.22 119.95,87.52 119.74,87.24C119.53,86.95 119.24,86.30 119.09,85.79C118.94,85.27 118.63,84.58 118.41,84.26C117.73,83.26 117.55,82.80 117.34,81.58C117.23,80.94 116.92,79.92 116.66,79.31C115.97,77.74 115.84,76.52 115.84,71.47C115.83,66.52 115.99,64.95 116.61,63.55C116.84,63.02 117.17,61.92 117.35,61.09C117.57,60.08 117.83,59.36 118.14,58.92C118.41,58.55 118.79,57.74 118.99,57.12C119.20,56.50 119.53,55.79 119.74,55.54C119.95,55.29 120.35,54.63 120.63,54.08C120.90,53.53 121.29,52.94 121.49,52.76C121.68,52.58 122.01,52.17 122.20,51.84C122.55,51.28 123.85,49.70 124.42,49.17C124.57,49.03 124.89,48.70 125.13,48.44C125.65,47.90 126.01,47.55 127.15,46.50C128.80,44.98 129.65,44.33 130.44,43.99C130.89,43.80 131.48,43.43 131.76,43.16C132.04,42.89 132.72,42.49 133.29,42.27C133.85,42.05 134.57,41.67 134.88,41.43C135.19,41.20 136.00,40.86 136.68,40.69C137.36,40.52 138.41,40.15 139.01,39.86C139.99,39.38 140.39,39.30 142.84,39.08C144.35,38.94 146.27,38.70 147.10,38.55C148.38,38.32 148.77,38.31 149.60,38.48C150.14,38.60 152.08,38.83 153.90,39.00C157.05,39.30 157.28,39.35 158.42,39.90C159.08,40.23 159.99,40.57 160.43,40.67C161.36,40.88 162.58,41.38 162.73,41.63C162.78,41.72 163.26,41.96 163.79,42.18C164.32,42.39 165.00,42.77 165.30,43.03C165.60,43.29 166.24,43.70 166.71,43.94C167.19,44.18 167.90,44.67 168.29,45.02C168.68,45.38 169.05,45.67 169.13,45.67C169.36,45.67 171.16,47.36 172.63,48.96C173.11,49.49 173.76,50.18 174.07,50.50C174.38,50.82 174.76,51.35 174.92,51.67C175.08,51.99 175.47,52.54 175.78,52.89C176.10,53.24 176.51,53.88 176.69,54.31C176.87,54.73 177.20,55.27 177.43,55.51C177.65,55.74 178.02,56.49 178.25,57.17C178.48,57.85 178.87,58.69 179.10,59.03C179.41,59.47 179.65,60.22 179.91,61.54C180.12,62.57 180.44,63.79 180.64,64.25C181.26,65.72 181.36,66.50 181.45,70.42C181.58,76.23 181.39,77.04 179.75,77.83C179.06,78.17 178.78,78.17 157.68,78.17C142.20,78.18 136.24,78.13 136.07,77.99C135.34,77.38 135.38,75.79 136.15,74.91C136.43,74.59 136.78,73.90 136.93,73.37C137.07,72.85 137.42,72.10 137.69,71.71C137.96,71.32 138.37,70.47 138.59,69.81C138.81,69.16 139.19,68.36 139.43,68.05C139.68,67.73 140.01,67.09 140.19,66.62C140.91,64.62 140.54,64.67 154.42,64.67C163.02,64.67 165.82,64.62 165.97,64.47C166.08,64.36 166.17,63.88 166.17,63.41C166.17,62.68 166.08,62.43 165.57,61.77C165.25,61.34 164.87,60.73 164.73,60.40C164.59,60.07 164.22,59.53 163.91,59.19C161.93,57.08 160.64,55.83 160.46,55.83C160.34,55.83 159.89,55.54 159.45,55.18C159.01,54.81 158.24,54.36 157.73,54.17C157.22,53.98 156.57,53.65 156.28,53.43C155.60,52.93 154.94,52.74 153.08,52.50C152.26,52.39 151.07,52.19 150.44,52.05C149.07,51.75 148.14,51.81 144.72,52.40C141.82,52.90 141.81,52.90 140.92,53.51C140.55,53.76 139.87,54.09 139.40,54.24C138.93,54.39 138.26,54.76 137.90,55.07C137.54,55.37 136.94,55.78 136.55,55.97C136.17,56.17 135.81,56.48 135.75,56.66C135.69,56.85 135.31,57.23 134.91,57.51C134.50,57.79 134.17,58.09 134.17,58.18C134.17,58.27 133.88,58.66 133.52,59.05C133.17,59.43 132.71,60.05 132.52,60.42C132.32,60.78 131.90,61.40 131.59,61.79C131.23,62.24 130.96,62.82 130.84,63.40C130.73,63.90 130.39,64.84 130.07,65.49C129.38,66.88 129.17,68.32 129.17,71.50C129.18,74.48 129.39,75.85 130.08,77.29C130.39,77.96 130.70,78.78 130.77,79.13C130.90,79.88 131.37,80.85 131.75,81.17C131.90,81.29 132.20,81.74 132.42,82.17C132.63,82.59 132.94,83.05 133.10,83.18C133.26,83.31 133.59,83.69 133.83,84.03C134.23,84.58 135.52,85.78 137.33,87.31C137.69,87.61 138.38,88.01 138.87,88.19C139.35,88.38 140.13,88.79 140.60,89.10C141.27,89.57 141.74,89.73 142.93,89.92C143.75,90.05 145.12,90.32 145.97,90.52C147.72,90.92 149.94,90.89 151.67,90.43C152.17,90.29 153.33,90.07 154.25,89.92C155.64,89.70 156.06,89.56 156.78,89.07C157.25,88.74 158.04,88.33 158.53,88.14C159.02,87.96 159.64,87.56 159.92,87.26C160.50,86.63 162.09,86.08 162.91,86.23C163.19,86.29 164.30,86.44 165.39,86.58C166.47,86.72 167.93,87.03 168.64,87.28C170.34,87.86 170.80,87.97 172.63,88.17C174.30,88.35 175.08,88.64 175.25,89.15C175.43,89.74 174.84,91.34 174.19,92.01C173.86,92.35 173.13,93.17 172.58,93.82C172.03,94.47 171.35,95.15 171.06,95.34C170.77,95.52 170.41,95.86 170.26,96.08C170.12,96.31 169.71,96.64 169.36,96.82C169.01,97.00 168.59,97.34 168.44,97.57C168.29,97.80 167.84,98.16 167.46,98.35C167.07,98.55 166.53,98.90 166.25,99.13C165.97,99.36 165.21,99.80 164.56,100.10C163.90,100.40 163.32,100.72 163.26,100.82C163.08,101.11 161.98,101.61 161.25,101.74C160.88,101.80 159.98,102.14 159.25,102.49C157.34,103.41 153.06,104.06 148.67,104.11C146.97,104.13 145.32,104.07 145.00,104.00ZM191.62,103.99C190.80,103.50 190.84,105.17 190.83,71.28C190.83,46.78 190.87,39.60 191.03,39.25C191.43,38.38 191.73,38.33 196.95,38.33C201.67,38.34 201.76,38.34 202.61,38.74C203.80,39.29 204.00,39.73 204.00,41.78C204.01,43.67 204.10,43.90 204.89,43.90C205.34,43.90 205.64,43.74 206.21,43.22C206.62,42.84 207.31,42.42 207.79,42.26C208.26,42.11 208.74,41.87 208.85,41.73C209.16,41.36 210.17,40.88 210.92,40.75C211.29,40.68 212.23,40.34 213.02,39.98C214.34,39.38 214.64,39.32 216.77,39.14C219.40,38.93 225.39,39.05 226.91,39.34C227.46,39.44 228.27,39.71 228.71,39.94C229.16,40.16 230.08,40.49 230.76,40.66C231.45,40.83 232.36,41.20 232.80,41.47C233.23,41.75 233.93,42.13 234.36,42.31C234.79,42.49 235.43,42.90 235.78,43.22C236.13,43.53 236.72,43.94 237.08,44.13C238.40,44.81 242.39,49.03 243.50,50.91C243.73,51.30 244.15,51.88 244.43,52.20C244.71,52.52 245.08,53.19 245.24,53.68C245.40,54.18 245.78,55.00 246.09,55.50C246.50,56.18 246.71,56.81 246.90,57.92C247.04,58.74 247.36,59.90 247.62,60.50L248.08,61.58L248.13,82.19L248.17,102.80L247.69,103.29C247.42,103.55 246.91,103.86 246.54,103.97C245.69,104.22 236.30,104.25 235.83,104.00C235.07,103.59 235.09,104.14 235.00,83.58L234.92,64.08L234.22,62.58C233.84,61.76 233.41,60.67 233.27,60.15C233.13,59.64 232.85,59.08 232.65,58.90C232.45,58.73 232.04,58.21 231.75,57.75C231.07,56.71 229.25,54.92 228.20,54.28C227.77,54.01 227.22,53.61 226.97,53.38C226.68,53.10 226.00,52.83 224.97,52.56C224.12,52.34 222.94,51.96 222.35,51.73C220.43,50.96 217.47,51.04 215.72,51.89C215.28,52.11 214.38,52.42 213.72,52.58C212.87,52.78 212.22,53.08 211.48,53.60C210.90,54.00 210.36,54.33 210.28,54.33C210.19,54.33 209.72,54.71 209.23,55.17C208.75,55.63 208.28,56.00 208.18,56.00C208.08,56.00 207.86,56.29 207.67,56.65C207.49,57.01 207.12,57.46 206.85,57.66C206.53,57.88 206.23,58.35 206.00,58.94C205.81,59.46 205.42,60.21 205.13,60.61C204.04,62.13 204.02,62.52 204.01,83.61C204.00,95.13 203.94,102.47 203.84,102.73C203.75,102.96 203.36,103.36 202.98,103.62L202.28,104.08L197.10,104.12C193.73,104.15 191.81,104.10 191.62,103.99ZM258.24,103.85C257.95,103.68 257.56,103.33 257.36,103.08L257.00,102.62L257.00,71.34L257.00,40.05L257.38,39.50C258.15,38.37 258.35,38.33 263.76,38.33C268.54,38.33 268.63,38.34 269.18,38.71C269.51,38.93 269.84,39.34 269.95,39.67C270.16,40.30 270.27,101.43 270.06,102.49C270.00,102.79 269.71,103.28 269.42,103.60L268.88,104.17L263.81,104.17C259.15,104.17 258.71,104.14 258.24,103.85ZM307.17,104.06C308.01,103.96 313.90,103.92 313.42,104.02C313.14,104.08 311.53,104.12 309.83,104.12C308.14,104.12 306.94,104.09 307.17,104.06ZM372.00,103.99C371.68,103.91 370.29,103.69 368.92,103.49C366.85,103.19 366.24,103.04 365.31,102.57C364.70,102.26 363.70,101.89 363.10,101.74C362.45,101.57 361.72,101.24 361.29,100.92C360.90,100.63 360.16,100.22 359.63,100.01C359.11,99.80 358.59,99.52 358.47,99.39C358.36,99.25 357.84,98.92 357.32,98.66C356.79,98.39 356.20,97.95 356.00,97.67C355.80,97.39 355.40,97.04 355.11,96.89C354.82,96.74 354.28,96.31 353.92,95.93C353.55,95.55 352.81,94.84 352.28,94.35C351.75,93.86 351.13,93.18 350.90,92.84C350.68,92.50 350.27,92.06 350.00,91.86C349.73,91.66 349.36,91.21 349.19,90.87C349.01,90.53 348.70,90.10 348.50,89.92C348.30,89.73 347.90,89.13 347.63,88.58C347.35,88.03 346.95,87.37 346.73,87.12C346.52,86.86 346.26,86.34 346.17,85.95C345.98,85.21 345.55,84.27 344.99,83.39C344.81,83.10 344.54,82.32 344.40,81.64C344.26,80.97 343.93,79.85 343.67,79.15C343.01,77.44 342.83,75.77 342.83,71.32C342.83,67.04 343.03,65.18 343.62,63.77C343.84,63.22 344.17,62.10 344.35,61.27C344.57,60.24 344.84,59.52 345.17,59.04C345.44,58.65 345.83,57.82 346.02,57.21C346.22,56.59 346.59,55.82 346.84,55.50C347.09,55.18 347.52,54.47 347.79,53.92C348.07,53.37 348.46,52.77 348.67,52.58C348.87,52.40 349.15,52.03 349.29,51.75C349.42,51.48 349.82,50.95 350.18,50.58C352.23,48.45 353.70,47.00 353.81,47.00C353.89,47.00 354.05,46.81 354.17,46.58C354.29,46.35 354.66,46.00 354.99,45.80C355.32,45.61 355.85,45.20 356.17,44.90C356.49,44.60 357.12,44.19 357.58,43.99C358.04,43.79 358.68,43.38 359.00,43.08C359.32,42.78 359.88,42.44 360.25,42.33C360.62,42.21 361.31,41.86 361.79,41.54C362.30,41.21 363.21,40.83 363.94,40.64C364.64,40.46 365.55,40.13 365.98,39.91C366.97,39.40 367.75,39.24 370.50,39.01C371.74,38.90 373.44,38.70 374.29,38.56C375.69,38.32 375.95,38.32 377.29,38.57C378.09,38.72 380.01,38.95 381.55,39.08C384.18,39.30 384.43,39.35 385.55,39.90C386.21,40.22 387.24,40.60 387.83,40.75C388.43,40.90 389.22,41.23 389.58,41.48C389.95,41.73 390.68,42.11 391.20,42.32C391.72,42.53 392.27,42.84 392.43,43.01C392.84,43.47 394.08,44.17 394.48,44.17C395.02,44.17 395.17,43.65 395.17,41.69C395.17,38.33 394.96,38.43 402.04,38.36L407.49,38.31L407.90,38.72C408.12,38.94 408.39,39.41 408.49,39.77C408.78,40.83 408.72,102.06 408.43,102.89C407.94,104.23 408.26,104.17 402.35,104.17C399.20,104.17 396.83,104.09 396.46,103.99C395.16,103.63 395.26,105.04 395.15,85.34C395.04,66.84 395.04,66.75 394.27,65.53C394.04,65.17 393.69,64.34 393.50,63.69C393.30,63.04 392.96,62.26 392.74,61.96C392.52,61.66 392.16,61.06 391.94,60.63C391.61,59.95 390.74,58.86 389.75,57.83C388.79,56.85 387.67,55.83 387.54,55.83C387.45,55.83 387.09,55.60 386.73,55.31C386.37,55.02 385.48,54.49 384.75,54.13C384.02,53.77 383.14,53.33 382.79,53.14C382.41,52.94 381.32,52.68 379.99,52.49C378.79,52.31 377.48,52.08 377.08,51.98C376.15,51.75 374.94,51.84 371.67,52.41C370.06,52.69 368.89,52.98 368.58,53.17C368.01,53.54 367.06,54.01 366.05,54.42C365.66,54.58 365.21,54.86 365.05,55.04C364.88,55.22 364.45,55.52 364.09,55.70C363.52,56.00 362.62,56.84 360.42,59.17C360.11,59.49 359.75,60.02 359.62,60.35C359.48,60.67 359.15,61.20 358.88,61.51C358.22,62.26 358.09,62.55 357.76,63.83C357.61,64.42 357.31,65.23 357.09,65.62C356.43,66.79 356.27,67.98 356.28,71.50C356.28,74.98 356.38,75.59 357.16,77.33C357.43,77.93 357.77,78.84 357.91,79.35C358.05,79.86 358.39,80.57 358.68,80.93C358.97,81.29 359.37,81.92 359.59,82.33C359.80,82.75 360.20,83.29 360.48,83.55C360.75,83.80 361.03,84.15 361.08,84.33C361.14,84.51 361.44,84.81 361.76,85.00C362.07,85.20 362.48,85.57 362.66,85.83C362.85,86.09 363.34,86.50 363.75,86.74C364.16,86.98 364.57,87.32 364.66,87.49C364.76,87.67 365.29,87.96 365.87,88.15C366.45,88.35 367.25,88.76 367.65,89.08C368.05,89.40 368.43,89.67 368.48,89.67C368.81,89.67 371.80,90.24 373.00,90.53C374.63,90.92 377.06,90.88 378.67,90.43C379.17,90.28 380.07,90.12 380.67,90.07L381.75,89.97L382.83,91.06C384.85,93.10 388.08,96.76 389.03,98.08C390.71,100.44 390.57,101.23 388.36,101.73C387.71,101.88 386.67,102.26 386.05,102.58C385.12,103.05 384.55,103.21 382.92,103.42C381.82,103.57 380.41,103.80 379.78,103.93C378.52,104.19 373.01,104.24 372.00,103.99ZM421.21,104.00C420.55,103.85 420.22,103.59 419.91,102.98C419.57,102.33 419.55,19.00 419.88,18.33C420.26,17.58 420.97,17.49 426.24,17.49C428.90,17.49 431.32,17.49 431.62,17.49C431.93,17.50 432.34,17.66 432.62,17.90L433.08,18.30L433.17,31.18C433.24,42.85 433.28,44.06 433.52,44.22C433.91,44.46 435.44,43.78 436.08,43.09C436.42,42.72 436.90,42.46 437.58,42.26C438.13,42.10 438.77,41.79 439.00,41.58C439.43,41.18 440.63,40.67 441.16,40.67C441.32,40.67 441.89,40.45 442.43,40.18C444.00,39.40 444.16,39.36 447.62,39.00C449.43,38.81 451.40,38.60 451.99,38.52C452.58,38.45 453.40,38.45 453.82,38.53C454.24,38.61 456.14,38.82 458.05,39.00C461.38,39.32 461.57,39.35 462.77,39.93C463.46,40.26 464.49,40.64 465.05,40.77C465.62,40.90 466.39,41.23 466.76,41.50C467.14,41.76 467.84,42.13 468.32,42.31C468.80,42.49 469.58,42.95 470.07,43.32C470.55,43.69 471.03,44.00 471.13,44.00C471.34,44.00 472.64,45.05 473.72,46.08C474.10,46.45 474.66,46.90 474.95,47.08C475.59,47.48 478.76,51.01 478.91,51.49C478.97,51.67 479.25,51.99 479.53,52.19C479.81,52.39 480.21,52.94 480.42,53.41C480.63,53.88 481.00,54.50 481.24,54.79C481.48,55.08 481.82,55.72 481.99,56.22C482.16,56.72 482.56,57.50 482.87,57.95C483.25,58.51 483.53,59.20 483.72,60.08C483.88,60.79 484.23,61.89 484.50,62.51C485.26,64.23 485.41,65.66 485.41,71.25C485.42,76.92 485.24,78.64 484.49,80.36C484.22,80.97 483.89,81.98 483.74,82.61C483.38,84.23 483.37,84.24 482.82,84.93C482.55,85.27 482.21,85.95 482.07,86.43C481.93,86.91 481.57,87.63 481.27,88.03C480.96,88.43 480.56,89.05 480.37,89.42C480.19,89.78 479.83,90.27 479.58,90.50C479.34,90.73 479.02,91.13 478.89,91.39C478.51,92.11 475.91,94.92 474.60,96.02C473.95,96.56 473.08,97.29 472.67,97.65C472.25,98.00 471.62,98.44 471.25,98.62C470.88,98.81 470.45,99.12 470.28,99.30C470.11,99.49 469.55,99.81 469.03,100.01C468.51,100.22 467.74,100.63 467.33,100.93C466.90,101.24 466.11,101.59 465.50,101.74C464.90,101.89 463.89,102.27 463.25,102.58C462.31,103.05 461.70,103.21 460.08,103.42C458.98,103.57 457.49,103.79 456.77,103.92C454.99,104.25 450.22,104.25 448.79,103.92C448.20,103.78 446.82,103.56 445.73,103.41C444.15,103.21 443.52,103.04 442.58,102.59C441.94,102.28 441.04,101.93 440.58,101.82C438.78,101.38 438.48,100.98 438.84,99.48C438.98,98.87 439.27,98.36 439.81,97.74C440.24,97.26 441.03,96.32 441.58,95.66C443.02,93.92 444.22,92.54 445.09,91.58C445.52,91.12 445.96,90.60 446.08,90.42C446.36,90.00 447.75,90.00 449.74,90.41C452.28,90.93 453.33,90.93 456.25,90.36C457.72,90.08 459.18,89.81 459.51,89.76C459.84,89.70 460.55,89.37 461.09,89.02C461.64,88.67 462.37,88.29 462.72,88.18C463.06,88.06 463.67,87.69 464.07,87.36C464.46,87.02 465.23,86.39 465.77,85.94C466.89,85.01 468.22,83.52 468.67,82.67C468.84,82.35 469.19,81.88 469.46,81.64C469.77,81.35 470.03,80.85 470.21,80.20C470.37,79.66 470.75,78.77 471.07,78.23C471.54,77.44 471.68,76.98 471.81,75.83C472.13,73.08 472.19,71.06 472.01,68.92C471.77,66.08 471.57,65.15 471.05,64.38C470.81,64.04 470.44,63.23 470.22,62.60C469.99,61.93 469.59,61.19 469.26,60.82C468.95,60.48 468.60,60.02 468.49,59.81C468.38,59.59 468.04,59.15 467.73,58.83C466.01,57.03 464.78,55.83 464.65,55.83C464.57,55.83 464.21,55.57 463.85,55.25C463.50,54.93 462.67,54.44 462.01,54.17C461.36,53.90 460.62,53.54 460.37,53.36C459.77,52.93 459.13,52.78 455.75,52.25C452.66,51.76 452.65,51.76 448.83,52.41C446.70,52.78 446.11,52.94 445.47,53.35C445.04,53.63 444.30,54.00 443.83,54.17C443.36,54.34 442.66,54.74 442.28,55.05C441.90,55.36 441.27,55.78 440.88,55.97C440.50,56.17 439.98,56.60 439.73,56.92C439.48,57.25 439.07,57.63 438.81,57.76C438.55,57.90 438.22,58.25 438.07,58.54C437.91,58.84 437.55,59.38 437.25,59.75C436.96,60.12 436.48,60.87 436.19,61.42C435.90,61.97 435.52,62.60 435.34,62.83C435.16,63.06 434.82,63.98 434.59,64.87C434.37,65.76 434.03,66.79 433.84,67.15C433.22,68.37 433.17,69.65 433.17,86.17C433.17,96.67 433.11,102.46 432.99,102.87C432.63,104.16 432.61,104.17 426.85,104.15C424.05,104.14 421.51,104.07 421.21,104.00ZM57.67,102.92C56.89,102.81 55.68,102.56 54.98,102.36C54.29,102.17 52.94,101.90 52.00,101.76C50.66,101.56 50.06,101.38 49.27,100.93C48.71,100.62 47.77,100.24 47.19,100.09C46.61,99.94 45.78,99.57 45.35,99.28C44.93,98.99 44.25,98.64 43.86,98.51C43.47,98.38 42.82,97.99 42.43,97.64C42.03,97.29 41.51,96.93 41.28,96.84C39.82,96.29 33.27,89.87 32.42,88.17C32.26,87.85 31.89,87.32 31.59,87.00C31.29,86.68 30.92,86.08 30.76,85.67C30.61,85.25 30.26,84.65 30.00,84.32C29.74,83.99 29.41,83.33 29.27,82.85C29.13,82.37 28.72,81.44 28.36,80.78C27.92,79.96 27.63,79.13 27.44,78.12C27.29,77.32 26.98,76.25 26.75,75.74C26.17,74.42 26.00,72.68 26.00,68.00C26.00,63.27 26.16,61.66 26.82,59.87C27.07,59.16 27.38,58.06 27.50,57.42C27.63,56.69 27.95,55.81 28.34,55.08C28.69,54.44 29.07,53.55 29.18,53.11C29.29,52.66 29.64,51.96 29.96,51.54C30.27,51.13 30.68,50.45 30.85,50.03C31.03,49.62 31.44,48.99 31.76,48.64C32.07,48.29 32.33,47.90 32.33,47.77C32.33,47.64 32.75,47.08 33.25,46.51C33.75,45.95 34.17,45.42 34.17,45.33C34.17,45.13 37.73,41.60 38.50,41.03C38.82,40.80 39.35,40.36 39.67,40.06C39.99,39.76 40.59,39.37 41.00,39.19C41.41,39.00 41.98,38.62 42.25,38.33C42.53,38.04 43.16,37.62 43.67,37.39C44.17,37.17 44.85,36.80 45.18,36.57C45.51,36.34 46.36,35.98 47.07,35.76C47.78,35.54 48.65,35.16 49.00,34.92C49.48,34.58 50.09,34.40 51.48,34.16C52.48,33.99 53.91,33.67 54.64,33.43C58.02,32.37 65.06,32.45 67.78,33.59C68.12,33.73 69.28,33.98 70.37,34.16C71.98,34.42 72.49,34.57 73.12,34.99C73.83,35.46 75.25,36.00 75.77,36.00C75.89,36.00 76.24,36.22 76.55,36.49C76.86,36.76 77.53,37.14 78.04,37.33C78.55,37.52 79.29,37.96 79.69,38.30C80.09,38.64 80.69,39.05 81.03,39.20C81.37,39.36 81.78,39.68 81.93,39.92C82.09,40.16 82.49,40.50 82.82,40.67C83.40,40.98 84.49,41.99 85.97,43.58C86.61,44.27 86.68,44.43 86.63,45.05C86.59,45.70 86.52,45.78 85.83,46.12C84.38,46.84 84.08,46.82 83.20,45.90C82.76,45.45 82.04,44.81 81.58,44.47C81.12,44.14 80.60,43.70 80.41,43.50C80.23,43.30 79.75,42.96 79.33,42.75C78.92,42.54 78.42,42.14 78.21,41.87C77.98,41.55 77.54,41.26 77.02,41.09C76.57,40.94 75.88,40.57 75.48,40.26C75.08,39.96 74.38,39.62 73.92,39.51C73.46,39.41 72.65,39.05 72.11,38.73C71.45,38.32 70.80,38.08 70.03,37.96C68.86,37.78 66.65,37.34 64.83,36.92C64.10,36.75 62.81,36.67 60.87,36.67C58.23,36.67 57.84,36.71 56.04,37.16C54.96,37.43 53.41,37.74 52.58,37.84C51.34,38.00 50.90,38.14 50.00,38.67C49.40,39.02 48.38,39.46 47.73,39.65C47.09,39.84 46.41,40.16 46.23,40.35C46.06,40.55 45.51,40.88 45.02,41.10C44.53,41.32 43.83,41.76 43.48,42.08C43.13,42.40 42.60,42.76 42.30,42.89C41.85,43.08 39.70,44.99 38.25,46.50C36.78,48.03 36.30,48.59 36.06,49.05C35.91,49.34 35.57,49.84 35.29,50.15C35.02,50.46 34.66,51.04 34.49,51.44C34.32,51.84 33.99,52.36 33.76,52.59C33.21,53.14 33.05,53.46 32.83,54.44C32.73,54.88 32.44,55.55 32.17,55.92C31.67,56.63 31.27,57.86 31.08,59.24C31.02,59.69 30.76,60.62 30.50,61.32C29.86,63.07 29.67,64.54 29.67,67.70C29.67,71.07 29.88,72.84 30.50,74.67C30.77,75.45 31.03,76.38 31.09,76.75C31.28,77.99 31.69,79.22 32.10,79.82C32.32,80.15 32.66,80.94 32.85,81.58C33.08,82.37 33.36,82.91 33.70,83.23C33.97,83.50 34.33,84.03 34.50,84.42C34.67,84.80 35.02,85.37 35.29,85.68C35.57,86.00 35.95,86.57 36.15,86.95C36.34,87.34 36.73,87.83 37.02,88.04C37.30,88.25 37.68,88.70 37.85,89.04C38.03,89.38 38.34,89.74 38.54,89.85C38.90,90.04 39.56,90.62 41.05,92.11C41.44,92.48 42.09,92.94 42.51,93.12C42.93,93.30 43.53,93.69 43.86,93.97C44.18,94.26 44.78,94.64 45.18,94.81C45.59,94.99 46.18,95.33 46.50,95.57C46.82,95.82 47.61,96.17 48.25,96.36C48.89,96.56 49.83,96.96 50.33,97.27C51.14,97.76 51.54,97.87 53.67,98.17C55.00,98.35 56.57,98.62 57.17,98.76C57.76,98.90 59.23,99.06 60.42,99.11C62.39,99.20 62.80,99.16 65.08,98.70C66.46,98.42 68.15,98.15 68.83,98.09C70.11,97.97 71.19,97.60 71.92,97.02C72.15,96.85 72.86,96.57 73.51,96.41C74.16,96.25 74.90,95.95 75.16,95.73C75.42,95.51 76.10,95.12 76.69,94.86C77.27,94.59 77.94,94.17 78.17,93.92C78.40,93.67 78.84,93.36 79.15,93.23C79.47,93.10 80.12,92.62 80.60,92.16C81.09,91.71 81.56,91.33 81.65,91.33C81.74,91.33 82.19,90.96 82.64,90.51C83.66,89.49 84.13,89.35 85.13,89.77C87.06,90.58 86.87,91.68 84.42,93.90C83.57,94.67 82.73,95.34 82.55,95.40C82.37,95.46 82.06,95.73 81.85,96.01C81.64,96.29 81.12,96.67 80.69,96.86C80.27,97.04 79.69,97.40 79.42,97.67C79.14,97.93 78.51,98.30 78.02,98.50C77.52,98.69 76.81,99.07 76.43,99.33C76.06,99.60 75.32,99.93 74.79,100.07C74.27,100.20 73.37,100.58 72.79,100.90C71.95,101.37 71.38,101.54 69.99,101.75C69.03,101.89 67.73,102.16 67.08,102.33C64.23,103.13 60.60,103.35 57.67,102.92ZM61.17,90.67C61.76,90.60 62.62,90.50 63.08,90.45C63.90,90.34 63.90,90.35 62.92,90.58C62.37,90.71 61.50,90.81 61.00,90.80L60.08,90.79L61.17,90.67ZM57.39,76.88C61.96,76.85 69.38,76.85 73.89,76.88C78.40,76.90 74.66,76.92 65.58,76.92C56.51,76.92 52.82,76.90 57.39,76.88ZM277.07,71.08C277.07,69.52 277.09,68.87 277.12,69.62C277.15,70.37 277.15,71.64 277.12,72.45C277.09,73.26 277.07,72.64 277.07,71.08ZM311.90,52.07C311.81,52.02 311.02,51.92 310.15,51.84L308.58,51.68L310.17,51.76C311.53,51.82 313.40,52.14 312.42,52.14C312.23,52.14 312.00,52.11 311.90,52.07ZM258.25,29.43C257.06,28.91 257.09,29.07 257.04,22.96C256.98,16.84 256.98,16.87 258.09,16.40C258.94,16.05 268.64,16.06 269.34,16.42C270.13,16.83 270.21,17.46 270.14,23.25C270.07,28.82 270.05,28.96 269.17,29.41C268.50,29.76 259.03,29.78 258.25,29.43ZM59.55,24.38C60.54,24.35 62.12,24.35 63.05,24.38C63.99,24.41 63.18,24.43 61.25,24.43C59.32,24.43 58.56,24.41 59.55,24.38Z"/></svg>